<?xml version="1.0" standalone="no"?><!DOCTYPE svg PUBLIC "-//W3C//DTD SVG 1.1//EN" "http://www.w3.org/Graphics/SVG/1.1/DTD/svg11.dtd"><svg t="1525245388143" class="icon" style="" viewBox="0 0 1024 1024" version="1.1" xmlns="http://www.w3.org/2000/svg" p-id="1960" xmlns:xlink="http://www.w3.org/1999/xlink" width="30" height="30"><defs><style type="text/css"></style></defs><path d="M896 800H627.2l-100.266667 100.266667c-4.266667 4.266667-10.666667 6.4-14.933333 6.4-6.4 0-10.666667-2.133333-14.933333-6.4l-100.266667-100.266667H128c-23.466667 0-42.666667-19.2-42.666667-42.666667v-597.333333c0-23.466667 19.2-42.666667 42.666667-42.666667h768c23.466667 0 42.666667 19.2 42.666667 42.666667v597.333333c0 23.466667-19.2 42.666667-42.666667 42.666667z m0-640H128v597.333333h275.2c6.4 0 12.8 2.133333 17.066667 6.4l91.733333 91.733334 85.333333-85.333334v-12.8h298.666667v-597.333333z m-162.133333 277.333333c19.2 0 34.133333 14.933333 34.133333 32s-14.933333 32-34.133333 32-34.133333-14.933333-34.133334-32 17.066667-32 34.133334-32z m-221.866667 64c-19.2 0-34.133333-14.933333-34.133333-32s14.933333-32 34.133333-32c19.2 0 34.133333 14.933333 34.133333 32s-17.066667 32-34.133333 32z m-200.533333 0c-19.2 0-34.133333-14.933333-34.133334-32s14.933333-32 34.133334-32 34.133333 14.933333 34.133333 32-17.066667 32-34.133333 32z" p-id="1961"></path></svg>