<?xml version="1.0" standalone="no"?><!DOCTYPE svg PUBLIC "-//W3C//DTD SVG 1.1//EN" "http://www.w3.org/Graphics/SVG/1.1/DTD/svg11.dtd"><svg t="1525333659636" class="icon" style="" viewBox="0 0 1024 1024" version="1.1" xmlns="http://www.w3.org/2000/svg" p-id="3560" xmlns:xlink="http://www.w3.org/1999/xlink" width="22" height="22"><defs><style type="text/css"></style></defs><path d="M794.239488 744.589312q-30.855168 5.142528-62.85312 5.142528-103.993344 0-192.559104-51.42528t-139.99104-139.99104-51.42528-192.559104q0-109.707264 59.424768-203.986944-114.849792 34.28352-187.702272 130.848768t-72.85248 219.414528q0 74.28096 29.140992 141.990912t77.995008 116.563968 116.563968 77.995008 141.990912 29.140992q82.280448 0 156.275712-35.140608t125.991936-97.993728zm115.992576-48.56832q-53.710848 115.992576-161.989632 185.416704t-236.270592 69.424128q-89.137152 0-170.274816-34.854912t-139.99104-93.708288-93.708288-139.99104-34.854912-170.274816q0-87.422976 32.85504-167.13216t89.137152-137.991168 134.562816-93.993984 165.70368-39.140352q25.141248-1.142784 34.854912 22.284288 10.285056 23.427072-8.57088 41.140224-49.139712 44.568576-75.138048 103.707648t-25.998336 124.849152q0 84.566016 41.711616 155.990016t113.135616 113.135616 155.990016 41.711616q67.424256 0 130.277376-29.140992 23.427072-10.285056 41.140224 7.428096 7.999488 7.999488 9.99936 19.427328t-2.571264 21.712896z" p-id="3561" fill="#1296db"></path></svg>